<svg aria-hidden="true" version="1.1" xmlns="http://www.w3.org/2000/svg" xmlns:xlink="http://www.w3.org/1999/xlink">
<defs>
<symbol id="icon-users" viewBox="0 0 1024 1024"><title>users</title><path class="path1" d="M947.2 921.6h-563.2c-42.347 0-76.8-34.453-76.8-76.8 0-2.461 0.538-60.952 47.331-118.544 26.883-33.088 63.541-59.31 108.952-77.941 54.856-22.504 122.858-33.915 202.117-33.915s147.261 11.411 202.117 33.915c45.411 18.63 82.067 44.853 108.952 77.941 46.794 57.592 47.331 116.083 47.331 118.544 0 42.347-34.453 76.8-76.8 76.8zM358.4 844.931c0.072 14.056 11.528 25.469 25.6 25.469h563.2c14.072 0 25.528-11.413 25.6-25.469-0.048-1.786-1.656-45.802-37.851-88.786-49.88-59.235-143.019-90.546-269.349-90.546s-219.469 31.31-269.349 90.546c-36.194 42.984-37.803 87-37.851 88.786z"></path><path class="path2" d="M665.6 563.2c-112.926 0-204.8-91.874-204.8-204.8 0-112.928 91.874-204.8 204.8-204.8s204.8 91.872 204.8 204.8c0 112.926-91.874 204.8-204.8 204.8zM665.6 204.8c-84.696 0-153.6 68.904-153.6 153.6s68.904 153.6 153.6 153.6 153.6-68.904 153.6-153.6-68.904-153.6-153.6-153.6z"></path><path class="path3" d="M230.4 921.6h-153.6c-42.347 0-76.8-34.451-76.8-76.8 0-1.915 0.386-47.446 33.92-92.16 19.373-25.832 45.778-46.299 78.483-60.834 39.126-17.389 87.438-26.206 143.597-26.206 9.16 0 18.232 0.235 26.962 0.701 14.118 0.754 24.954 12.81 24.2 26.928-0.752 14.117-12.781 24.96-26.928 24.2-7.826-0.418-15.979-0.629-24.234-0.629-199.366 0-204.666 121.826-204.8 128.131 0.072 14.054 11.528 25.469 25.6 25.469h153.6c14.138 0 25.6 11.461 25.6 25.6s-11.462 25.6-25.6 25.6z"></path><path class="path4" d="M256 614.4c-84.696 0-153.6-68.904-153.6-153.6s68.904-153.6 153.6-153.6 153.6 68.904 153.6 153.6-68.904 153.6-153.6 153.6zM256 358.4c-56.464 0-102.4 45.936-102.4 102.4s45.936 102.4 102.4 102.4 102.4-45.936 102.4-102.4c0-56.464-45.936-102.4-102.4-102.4z"></path></symbol>
<symbol id="icon-report" viewBox="0 0 1024 1024"><title>report</title><path class="path1" d="M896 1024h-819.2c-42.347 0-76.8-34.451-76.8-76.8v-819.2c0-42.347 34.453-76.8 76.8-76.8h819.2c42.349 0 76.8 34.453 76.8 76.8v819.2c0 42.349-34.451 76.8-76.8 76.8zM76.8 102.4c-14.115 0-25.6 11.485-25.6 25.6v819.2c0 14.115 11.485 25.6 25.6 25.6h819.2c14.115 0 25.6-11.485 25.6-25.6v-819.2c0-14.115-11.485-25.6-25.6-25.6h-819.2z"></path><path class="path2" d="M332.8 870.4h-102.4c-14.138 0-25.6-11.461-25.6-25.6v-460.8c0-14.138 11.462-25.6 25.6-25.6h102.4c14.138 0 25.6 11.462 25.6 25.6v460.8c0 14.139-11.462 25.6-25.6 25.6zM256 819.2h51.2v-409.6h-51.2v409.6z"></path><path class="path3" d="M537.6 870.4h-102.4c-14.138 0-25.6-11.461-25.6-25.6v-614.4c0-14.138 11.462-25.6 25.6-25.6h102.4c14.139 0 25.6 11.462 25.6 25.6v614.4c0 14.139-11.461 25.6-25.6 25.6zM460.8 819.2h51.2v-563.2h-51.2v563.2z"></path><path class="path4" d="M742.4 870.4h-102.4c-14.139 0-25.6-11.461-25.6-25.6v-256c0-14.139 11.461-25.6 25.6-25.6h102.4c14.139 0 25.6 11.461 25.6 25.6v256c0 14.139-11.461 25.6-25.6 25.6zM665.6 819.2h51.2v-204.8h-51.2v204.8z"></path></symbol>
<symbol id="resource" viewBox="0 0 1024 1024" version="1.1" xmlns="http://www.w3.org/2000/svg"><path d="M400.147692 543.901538H78.769231a78.769231 78.769231 0 0 0-78.769231 78.769231V945.230769a78.769231 78.769231 0 0 0 78.769231 78.769231h319.803077a78.769231 78.769231 0 0 0 78.76923-78.769231v-321.378461a78.769231 78.769231 0 0 0-78.76923-78.769231z m39.384616 376.123077A63.803077 63.803077 0 0 1 376.123077 984.615385H103.975385A63.803077 63.803077 0 0 1 39.384615 920.024615v-272.147692a63.803077 63.803077 0 0 1 63.803077-63.803077h272.935385a63.803077 63.803077 0 0 1 63.803077 63.803077v272.147692z m209.526154-457.255384a167.384615 167.384615 0 0 0 236.307692 0l89.403077-88.615385a167.384615 167.384615 0 0 0 0-236.307692L886.153846 48.836923a167.384615 167.384615 0 0 0-236.307692 0L560.836923 137.846154a167.384615 167.384615 0 0 0 0 236.307692l88.615385 88.615385zM596.283077 161.476923l78.769231-78.769231a133.907692 133.907692 0 0 1 189.44 0l78.76923 78.769231a133.907692 133.907692 0 0 1 0 189.046154l-78.76923 78.769231a133.907692 133.907692 0 0 1-189.44 0l-78.769231-78.769231a133.907692 133.907692 0 0 1 0-189.046154z m331.618461 382.818462h-319.803076a78.769231 78.769231 0 0 0-78.769231 78.76923V945.230769a78.769231 78.769231 0 0 0 78.769231 78.769231h319.803076a78.769231 78.769231 0 0 0 78.769231-78.769231v-321.378461a78.769231 78.769231 0 0 0-78.769231-78.769231z m39.384616 376.123077A63.803077 63.803077 0 0 1 905.846154 984.615385h-275.692308a63.803077 63.803077 0 0 1-63.803077-63.803077v-272.935385A63.803077 63.803077 0 0 1 630.153846 584.073846h275.692308a63.803077 63.803077 0 0 1 63.803077 63.803077v272.147692zM400.147692 16.147692H78.769231a78.769231 78.769231 0 0 0-78.769231 78.769231v319.803077a78.769231 78.769231 0 0 0 78.769231 78.769231h319.803077a78.769231 78.769231 0 0 0 78.76923-78.769231V96.098462a78.769231 78.769231 0 0 0-78.76923-78.769231z m39.384616 376.123077a63.803077 63.803077 0 0 1-63.803077 63.803077h-271.753846A63.803077 63.803077 0 0 1 39.384615 393.846154V118.153846a63.803077 63.803077 0 0 1 64.59077-62.227692h272.147692A63.803077 63.803077 0 0 1 439.926154 118.153846v275.692308z" /></symbol>
<symbol id="icon-pdf" viewBox="0 0 1024 1024" version="1.1" xmlns="http://www.w3.org/2000/svg"><path d="M927.996 879.432H98.781V409.544h55.281v414.607h718.653V409.544h55.281zM126.421 409.544h165.843v55.281H126.421zM734.512 409.544h165.843v55.281H734.512zM487.712 160.78l27.641-27.64 19.545 19.545L710.8 328.587l-39.09 39.09-130.681-130.683v476.595h-55.281V240.923L358.994 367.676l-39.09-39.09 165.843-165.843v-1.964h1.965z" /></symbol>
<symbol id="icon-delete" viewBox="0 0 1024 1024" version="1.1" xmlns="http://www.w3.org/2000/svg"><path d="M607.897867 768.043004c-17.717453 0-31.994625-14.277171-31.994625-31.994625L575.903242 383.935495c0-17.717453 14.277171-31.994625 31.994625-31.994625s31.994625 14.277171 31.994625 31.994625l0 351.94087C639.892491 753.593818 625.61532 768.043004 607.897867 768.043004zM415.930119 768.043004c-17.717453 0-31.994625-14.277171-31.994625-31.994625L383.935495 383.935495c0-17.717453 14.277171-31.994625 31.994625-31.994625 17.717453 0 31.994625 14.277171 31.994625 31.994625l0 351.94087C447.924744 753.593818 433.647573 768.043004 415.930119 768.043004zM928.016126 223.962372l-159.973123 0L768.043004 159.973123c0-52.980346-42.659499-95.983874-95.295817-95.983874L351.94087 63.989249c-52.980346 0-95.983874 43.003528-95.983874 95.983874l0 63.989249-159.973123 0c-17.717453 0-31.994625 14.277171-31.994625 31.994625s14.277171 31.994625 31.994625 31.994625l832.032253 0c17.717453 0 31.994625-14.277171 31.994625-31.994625S945.73358 223.962372 928.016126 223.962372zM319.946246 159.973123c0-17.545439 14.449185-31.994625 31.994625-31.994625l320.806316 0c17.545439 0 31.306568 14.105157 31.306568 31.994625l0 63.989249L319.946246 223.962372 319.946246 159.973123 319.946246 159.973123zM736.048379 960.010751 288.123635 960.010751c-52.980346 0-95.983874-43.003528-95.983874-95.983874L192.139761 383.591466c0-17.717453 14.277171-31.994625 31.994625-31.994625s31.994625 14.277171 31.994625 31.994625l0 480.435411c0 17.717453 14.449185 31.994625 31.994625 31.994625l448.096758 0c17.717453 0 31.994625-14.277171 31.994625-31.994625L768.215018 384.795565c0-17.717453 14.277171-31.994625 31.994625-31.994625s31.994625 14.277171 31.994625 31.994625l0 479.231312C832.032253 916.835209 789.028725 960.010751 736.048379 960.010751z" /></symbol>
<symbol id="icon-edit" viewBox="0 0 1024 1024" version="1.1" xmlns="http://www.w3.org/2000/svg"><path d="M946.228729 226.790236 795.664571 76.216869c-16.223496-16.223496-42.61354-16.223496-58.833967 0L144.8142 668.258856l0.019443 0.025583c-2.574638 2.788509-4.494361 6.126534-5.590322 9.7869L65.112973 926.269142c-2.625804 8.800433-0.220011 18.334577 6.27696 24.825408 6.490831 6.496971 16.021905 8.901741 24.822338 6.27696l248.188592-74.130348c3.651157-1.092891 6.998391-3.015683 9.78997-5.593392l0.025583 0.022513 0.703011-0.706081 19.790742-19.794835L946.234869 285.627273C962.452225 269.403776 962.452225 243.007593 946.228729 226.790236L946.228729 226.790236zM218.322377 665.431461l460.860273-460.882785L817.902038 343.272157 357.041766 804.151873 218.322377 665.431461 218.322377 665.431461zM904.965953 256.208243l-51.723012 51.723012L714.52253 169.208796l51.723012-51.727105L904.965953 256.208243 904.965953 256.208243zM126.249379 896.234081l56.69628-189.836603L316.076772 839.533708 126.249379 896.234081 126.249379 896.234081zM126.249379 896.234081" /></symbol>
<symbol version="1.1" id="icon-adduser" xmlns="http://www.w3.org/2000/svg" xmlns:xlink="http://www.w3.org/1999/xlink" x="0px" y="0px"
	 viewBox="0 0 328.5 328.5" style="enable-background:new 0 0 328.5 328.5;" xml:space="preserve">
<g>
		<polygon points="96.333,150.918 96.333,135.918 55.667,135.918 55.667,95.251 40.667,95.251 40.667,135.918 0,135.918 0,150.918 
			40.667,150.918 40.667,191.583 55.667,191.583 55.667,150.918 		"/>
		<path d="M259.383,185.941H145.858c-38.111,0-69.117,31.006-69.117,69.117v39.928H328.5v-39.928
			C328.5,216.948,297.494,185.941,259.383,185.941z M313.5,279.987H91.741v-24.928c0-29.84,24.276-54.117,54.117-54.117h113.524
			c29.84,0,54.117,24.277,54.117,54.117L313.5,279.987L313.5,279.987z"/>
		<path d="M202.621,178.84c40.066,0,72.662-32.597,72.662-72.663s-32.596-72.663-72.662-72.663s-72.663,32.596-72.663,72.663
			S162.555,178.84,202.621,178.84z M202.621,48.515c31.795,0,57.662,25.867,57.662,57.663s-25.867,57.663-57.662,57.663
			c-31.796,0-57.663-25.868-57.663-57.663S170.825,48.515,202.621,48.515z"/>
	</g>
</symbol>


<symbol id="icon-cross" viewBox="0 0 1024 1024"><title>cross</title><path class="path1" d="M548.203 537.6l289.099-289.098c9.998-9.998 9.998-26.206 0-36.205-9.997-9.997-26.206-9.997-36.203 0l-289.099 289.099-289.098-289.099c-9.998-9.997-26.206-9.997-36.205 0-9.997 9.998-9.997 26.206 0 36.205l289.099 289.098-289.099 289.099c-9.997 9.997-9.997 26.206 0 36.203 5 4.998 11.55 7.498 18.102 7.498s13.102-2.499 18.102-7.499l289.098-289.098 289.099 289.099c4.998 4.998 11.549 7.498 18.101 7.498s13.102-2.499 18.101-7.499c9.998-9.997 9.998-26.206 0-36.203l-289.098-289.098z"></path></symbol>

<symbol id="icon-done" viewBox="0 0 24 24"><title>done</title><path d="M9 16.219l10.594-10.641 1.406 1.406-12 12-5.578-5.578 1.359-1.406z"></path></symbol>

<symbol id="template" viewBox="0 0 1024 1024" version="1.1" xmlns="http://www.w3.org/2000/svg"><path d="M902.695385 302.867692h-294.596923V126.030769h294.596923zM565.956923 78.769231v270.966154H945.230769V78.769231zM120.910769 720.738462h295.384616v177.230769h-295.384616zM78.769231 945.230769h378.88v-270.966154H78.769231zM124.061538 120.516923h288.689231v404.086154H124.061538zM78.769231 565.956923h378.88V78.769231H78.769231z m531.692307-67.741538h290.264616V905.846154H610.461538zM565.956923 945.230769H945.230769V458.043077h-379.273846z" /></symbol>

<symbol id="filter"  viewBox="0 0 1024 1024" version="1.1" xmlns="http://www.w3.org/2000/svg"><path d="M560 926.4c-4.8 0-8-1.6-11.2-4.8l-144-136c-3.2-1.6-4.8-6.4-4.8-9.6V433.6L107.2 123.2c-4.8-4.8-4.8-11.2-3.2-17.6 3.2-6.4 8-9.6 14.4-9.6H864c6.4 0 12.8 3.2 14.4 9.6s1.6 12.8-3.2 17.6L576 433.6V912c0 6.4-3.2 12.8-9.6 14.4H560zM432 768l112 105.6v-448c0-4.8 1.6-8 4.8-11.2L827.2 128h-672l272 288c3.2 3.2 4.8 6.4 4.8 11.2V768z"/></symbol>

<symbol id="icon-chevron-left"  viewBox="0 0 1024 1024" version="1.1" xmlns="http://www.w3.org/2000/svg"><path d="M622.927311 789.137615c-6.503881 0-13.007763-2.16796-18.066337-7.226535l-231.249118-231.249118c-10.117149-10.117149-15.898377-23.847565-15.898377-39.023289 0-14.45307 5.781228-28.183486 15.898377-39.023288l231.971771-231.971772c10.117149-10.117149 26.015526-10.117149 35.410022 0 10.117149 10.117149 10.117149 26.015526 0 35.410021l-231.249118 231.971772c-0.722653 0.722653-1.445307 2.16796-1.445307 2.890614 0 0.722653 0 2.16796 1.445307 2.890614l231.249118 231.249118c10.117149 10.117149 10.117149 26.015526 0 35.410021-5.058574 5.781228-11.562456 8.671842-18.066338 8.671842z" /></symbol>

<symbol id="icon-add" stroke="white" stroke-width="3%"  viewBox="0 0 1024 1024" version="1.1" xmlns="http://www.w3.org/2000/svg"><path d="M496 224v272H224v32h272v272h32V528h272v-32H528V224z"  /></symbol>

<symbol id="energy" viewBox="-108 0 638 638.75099" version="1.1" xmlns="http://www.w3.org/2000/svg"><path d="M 421.789062 318.191406 C 419.070312 309.648438 412.890625 302.636719 404.757812 298.859375 L 265.074219 234.210938 C 265.023438 215.230469 254.886719 197.699219 238.457031 188.195312 L 252.296875 34.808594 C 253.882812 17.246094 240.929688 1.714844 223.363281 0.132812 C 222.40625 0.0429688 221.453125 0 220.496094 0 L 203.1875 0 C 185.546875 0.00390625 171.253906 14.308594 171.257812 31.945312 C 171.257812 32.90625 171.300781 33.859375 171.390625 34.808594 L 185.226562 188.230469 C 168.808594 197.730469 158.675781 215.238281 158.613281 234.210938 L 18.929688 298.859375 C 2.914062 306.257812 -4.066406 325.234375 3.324219 341.246094 C 3.738281 342.136719 4.191406 343.011719 4.683594 343.859375 L 13.339844 358.847656 C 17.824219 366.617188 25.371094 372.144531 34.128906 374.074219 C 36.375 374.570312 38.664062 374.820312 40.964844 374.820312 C 47.566406 374.820312 54.007812 372.78125 59.40625 368.984375 L 179.074219 284.667969 L 158.613281 627.464844 C 158.261719 633.335938 162.730469 638.375 168.601562 638.730469 C 168.820312 638.746094 169.039062 638.75 169.261719 638.75 L 254.425781 638.75 C 260.304688 638.761719 265.078125 634.003906 265.089844 628.121094 C 265.089844 627.902344 265.082031 627.683594 265.074219 627.464844 L 244.628906 284.667969 L 364.304688 368.984375 C 369.699219 372.78125 376.140625 374.820312 382.738281 374.820312 C 385.039062 374.820312 387.328125 374.566406 389.578125 374.074219 C 398.332031 372.144531 405.882812 366.617188 410.367188 358.847656 L 419.019531 343.859375 C 423.5 336.070312 424.507812 326.757812 421.789062 318.191406 Z M 195.316406 24.75 C 197.332031 22.527344 200.191406 21.273438 203.1875 21.292969 L 220.496094 21.292969 C 226.375 21.265625 231.160156 26.011719 231.183594 31.894531 C 231.183594 32.226562 231.171875 32.5625 231.140625 32.894531 L 217.6875 181.308594 C 213.796875 180.867188 209.863281 180.867188 205.976562 181.308594 L 192.574219 32.894531 C 192.304688 29.917969 193.300781 26.960938 195.316406 24.75 Z M 200.472656 204.488281 C 206.53125 202.105469 213.199219 201.730469 219.484375 203.421875 C 220.816406 203.726562 222.125 204.121094 223.402344 204.589844 C 235.648438 209.320312 243.738281 221.082031 243.777344 234.210938 C 243.761719 235.789062 243.632812 237.363281 243.382812 238.925781 C 243.382812 239.035156 243.289062 239.109375 243.265625 239.214844 C 242.71875 243.070312 241.453125 246.792969 239.523438 250.179688 C 239.433594 250.316406 239.320312 250.433594 239.234375 250.570312 C 237.332031 253.78125 234.851562 256.609375 231.921875 258.917969 C 231.832031 258.980469 231.8125 259.089844 231.726562 259.152344 C 230.484375 260.117188 229.1875 261.007812 227.84375 261.828125 C 217.992188 267.535156 205.847656 267.535156 196 261.828125 C 194.605469 261.003906 193.265625 260.097656 191.988281 259.113281 C 191.910156 259.050781 191.890625 258.941406 191.808594 258.878906 C 188.722656 256.496094 186.132812 253.542969 184.164062 250.179688 C 182.222656 246.796875 180.945312 243.074219 180.394531 239.214844 C 180.394531 239.097656 180.289062 239.011719 180.269531 238.902344 C 180.039062 237.347656 179.917969 235.777344 179.902344 234.210938 C 179.953125 221 188.128906 209.1875 200.472656 204.488281 Z M 47.175781 351.535156 C 44.742188 353.296875 41.667969 353.921875 38.738281 353.238281 C 35.816406 352.605469 33.300781 350.757812 31.820312 348.160156 L 23.125 333.214844 C 20.179688 328.121094 21.921875 321.613281 27.015625 318.667969 C 27.292969 318.507812 27.578125 318.363281 27.871094 318.226562 L 163.070312 255.648438 C 163.761719 257.234375 164.570312 258.789062 165.425781 260.320312 C 165.53125 260.515625 165.621094 260.714844 165.722656 260.894531 C 166.691406 262.582031 167.757812 264.203125 168.917969 265.765625 Z M 180.566406 617.460938 L 200.3125 286.148438 C 201.28125 286.363281 202.261719 286.480469 203.242188 286.640625 C 203.996094 286.769531 204.726562 286.914062 205.488281 287.011719 C 207.296875 287.230469 209.113281 287.347656 210.9375 287.378906 C 211.242188 287.378906 211.546875 287.441406 211.84375 287.441406 C 212.140625 287.441406 212.425781 287.441406 212.714844 287.441406 C 214.550781 287.410156 216.390625 287.285156 218.21875 287.066406 C 218.917969 286.984375 219.625 286.832031 220.347656 286.714844 C 221.410156 286.542969 222.378906 286.425781 223.390625 286.203125 L 243.121094 617.460938 Z M 400.5625 333.214844 L 391.90625 348.117188 C 390.425781 350.714844 387.910156 352.5625 384.984375 353.195312 C 382.0625 353.878906 378.988281 353.257812 376.554688 351.496094 L 254.722656 265.71875 C 255.878906 264.152344 256.945312 262.515625 257.914062 260.824219 C 258.011719 260.675781 258.066406 260.507812 258.148438 260.355469 C 259.027344 258.816406 259.828125 257.230469 260.546875 255.609375 L 395.746094 318.179688 C 401.082031 320.652344 403.40625 326.976562 400.941406 332.3125 C 400.804688 332.605469 400.660156 332.894531 400.496094 333.171875 Z M 400.5625 333.214844 " />
</symbol>

<symbol id="search" xmlns="http://www.w3.org/2000/svg" xmlns:sketch="http://www.bohemiancoding.com/sketch/ns" xmlns:xlink="http://www.w3.org/1999/xlink">
<path d="M19.4271164,21.4271164 C18.0372495,22.4174803 16.3366522,23 14.5,23 C9.80557939,23 6,19.1944206 6,14.5 C6,9.80557939 9.80557939,6 14.5,6 C19.1944206,6 23,9.80557939 23,14.5 C23,16.3366522 22.4174803,18.0372495 21.4271164,19.4271164 L27.0119176,25.0119176 C27.5621186,25.5621186 27.5575313,26.4424687 27.0117185,26.9882815 L26.9882815,27.0117185 C26.4438648,27.5561352 25.5576204,27.5576204 25.0119176,27.0119176 L19.4271164,21.4271164 L19.4271164,21.4271164 Z M14.5,21 C18.0898511,21 21,18.0898511 21,14.5 C21,10.9101489 18.0898511,8 14.5,8 C10.9101489,8 8,10.9101489 8,14.5 C8,18.0898511 10.9101489,21 14.5,21 L14.5,21 Z" />
</symbol>

<symbol version="1.1" id="icon-user" xmlns="http://www.w3.org/2000/svg" xmlns:xlink="http://www.w3.org/1999/xlink" x="0px" y="0px"
viewBox="0 0 328.5 328.5" style="enable-background:new 0 0 328.5 328.5;" xml:space="preserve">
<g>
<path d="M259.383,185.941H145.858c-38.111,0-69.117,31.006-69.117,69.117v39.928H328.5v-39.928
C328.5,216.948,297.494,185.941,259.383,185.941z M313.5,279.987H91.741v-24.928c0-29.84,24.276-54.117,54.117-54.117h113.524
c29.84,0,54.117,24.277,54.117,54.117L313.5,279.987L313.5,279.987z"/>
<path d="M202.621,178.84c40.066,0,72.662-32.597,72.662-72.663s-32.596-72.663-72.662-72.663s-72.663,32.596-72.663,72.663
S162.555,178.84,202.621,178.84z M202.621,48.515c31.795,0,57.662,25.867,57.662,57.663s-25.867,57.663-57.662,57.663
c-31.796,0-57.663-25.868-57.663-57.663S170.825,48.515,202.621,48.515z"/>
</g>
</symbol>




<symbol id="icon-settings" xmlns="http://www.w3.org/2000/svg" xmlns:xlink="http://www.w3.org/1999/xlink" x="0px" y="0px"
	 viewBox="0 0 54 54" style="enable-background:new 0 0 54 54;" xml:space="preserve">
<g>
	<path d="M51.22,21h-5.052c-0.812,0-1.481-0.447-1.792-1.197s-0.153-1.54,0.42-2.114l3.572-3.571
		c0.525-0.525,0.814-1.224,0.814-1.966c0-0.743-0.289-1.441-0.814-1.967l-4.553-4.553c-1.05-1.05-2.881-1.052-3.933,0l-3.571,3.571
		c-0.574,0.573-1.366,0.733-2.114,0.421C33.447,9.313,33,8.644,33,7.832V2.78C33,1.247,31.753,0,30.22,0H23.78
		C22.247,0,21,1.247,21,2.78v5.052c0,0.812-0.447,1.481-1.197,1.792c-0.748,0.313-1.54,0.152-2.114-0.421l-3.571-3.571
		c-1.052-1.052-2.883-1.05-3.933,0l-4.553,4.553c-0.525,0.525-0.814,1.224-0.814,1.967c0,0.742,0.289,1.44,0.814,1.966l3.572,3.571
		c0.573,0.574,0.73,1.364,0.42,2.114S8.644,21,7.832,21H2.78C1.247,21,0,22.247,0,23.78v6.439C0,31.753,1.247,33,2.78,33h5.052
		c0.812,0,1.481,0.447,1.792,1.197s0.153,1.54-0.42,2.114l-3.572,3.571c-0.525,0.525-0.814,1.224-0.814,1.966
		c0,0.743,0.289,1.441,0.814,1.967l4.553,4.553c1.051,1.051,2.881,1.053,3.933,0l3.571-3.572c0.574-0.573,1.363-0.731,2.114-0.42
		c0.75,0.311,1.197,0.98,1.197,1.792v5.052c0,1.533,1.247,2.78,2.78,2.78h6.439c1.533,0,2.78-1.247,2.78-2.78v-5.052
		c0-0.812,0.447-1.481,1.197-1.792c0.751-0.312,1.54-0.153,2.114,0.42l3.571,3.572c1.052,1.052,2.883,1.05,3.933,0l4.553-4.553
		c0.525-0.525,0.814-1.224,0.814-1.967c0-0.742-0.289-1.44-0.814-1.966l-3.572-3.571c-0.573-0.574-0.73-1.364-0.42-2.114
		S45.356,33,46.168,33h5.052c1.533,0,2.78-1.247,2.78-2.78V23.78C54,22.247,52.753,21,51.22,21z M52,30.22
		C52,30.65,51.65,31,51.22,31h-5.052c-1.624,0-3.019,0.932-3.64,2.432c-0.622,1.5-0.295,3.146,0.854,4.294l3.572,3.571
		c0.305,0.305,0.305,0.8,0,1.104l-4.553,4.553c-0.304,0.304-0.799,0.306-1.104,0l-3.571-3.572c-1.149-1.149-2.794-1.474-4.294-0.854
		c-1.5,0.621-2.432,2.016-2.432,3.64v5.052C31,51.65,30.65,52,30.22,52H23.78C23.35,52,23,51.65,23,51.22v-5.052
		c0-1.624-0.932-3.019-2.432-3.64c-0.503-0.209-1.021-0.311-1.533-0.311c-1.014,0-1.997,0.4-2.761,1.164l-3.571,3.572
		c-0.306,0.306-0.801,0.304-1.104,0l-4.553-4.553c-0.305-0.305-0.305-0.8,0-1.104l3.572-3.571c1.148-1.148,1.476-2.794,0.854-4.294
		C10.851,31.932,9.456,31,7.832,31H2.78C2.35,31,2,30.65,2,30.22V23.78C2,23.35,2.35,23,2.78,23h5.052
		c1.624,0,3.019-0.932,3.64-2.432c0.622-1.5,0.295-3.146-0.854-4.294l-3.572-3.571c-0.305-0.305-0.305-0.8,0-1.104l4.553-4.553
		c0.304-0.305,0.799-0.305,1.104,0l3.571,3.571c1.147,1.147,2.792,1.476,4.294,0.854C22.068,10.851,23,9.456,23,7.832V2.78
		C23,2.35,23.35,2,23.78,2h6.439C30.65,2,31,2.35,31,2.78v5.052c0,1.624,0.932,3.019,2.432,3.64
		c1.502,0.622,3.146,0.294,4.294-0.854l3.571-3.571c0.306-0.305,0.801-0.305,1.104,0l4.553,4.553c0.305,0.305,0.305,0.8,0,1.104
		l-3.572,3.571c-1.148,1.148-1.476,2.794-0.854,4.294c0.621,1.5,2.016,2.432,3.64,2.432h5.052C51.65,23,52,23.35,52,23.78V30.22z"/>
	<path d="M27,18c-4.963,0-9,4.037-9,9s4.037,9,9,9s9-4.037,9-9S31.963,18,27,18z M27,34c-3.859,0-7-3.141-7-7s3.141-7,7-7
		s7,3.141,7,7S30.859,34,27,34z"/>
</g>
</symbol>

<symbol id="icon-lock" xmlns="http://www.w3.org/2000/svg"  version="1.1" viewBox="-66 0 512 512">
<g>
<path d="M 340 197.007812 L 340 150 C 340 67.289062 272.710938 0 190 0 C 107.289062 0 40 67.289062 40 150 L 40 197.007812 C 17.203125 201.652344 0 221.855469 0 246 L 0 302.769531 C 0 308.292969 4.476562 312.769531 10 312.769531 C 15.523438 312.769531 20 308.292969 20 302.769531 L 20 246 C 20 229.457031 33.457031 216 50 216 L 330 216 C 346.542969 216 360 229.457031 360 246 L 360 462 C 360 475.035156 351.640625 486.152344 340 490.28125 L 340 430 C 340 424.476562 335.523438 420 330 420 C 324.476562 420 320 424.476562 320 430 L 320 492 L 50 492 C 33.457031 492 20 478.542969 20 462 L 20 383 C 20 377.476562 15.523438 373 10 373 C 4.476562 373 0 377.476562 0 383 L 0 462 C 0 489.570312 22.429688 512 50 512 L 330 512 C 357.570312 512 380 489.570312 380 462 L 380 246 C 380 221.855469 362.796875 201.652344 340 197.007812 Z M 114 196 L 114 150 C 114 108.09375 148.09375 74 190 74 C 231.90625 74 266 108.09375 266 150 L 266 196 Z M 286 196 L 286 150 C 286 97.066406 242.933594 54 190 54 C 137.066406 54 94 97.066406 94 150 L 94 196 L 60 196 L 60 150 C 60 78.316406 118.316406 20 190 20 C 261.683594 20 320 78.316406 320 150 L 320 196 Z M 286 196 " style=" stroke:none;fill-rule:nonzero;fill:rgb(0%,0%,0%);fill-opacity:1;" />
<path d="M 10 352.488281 C 12.628906 352.488281 15.210938 351.421875 17.070312 349.558594 C 18.929688 347.699219 20 345.121094 20 342.488281 C 20 339.859375 18.929688 337.277344 17.070312 335.421875 C 15.210938 333.558594 12.628906 332.488281 10 332.488281 C 7.371094 332.488281 4.789062 333.558594 2.929688 335.421875 C 1.070312 337.277344 0 339.859375 0 342.488281 C 0 345.121094 1.070312 347.699219 2.929688 349.558594 C 4.789062 351.421875 7.371094 352.488281 10 352.488281 Z M 10 352.488281 " style=" stroke:none;fill-rule:nonzero;fill:rgb(0%,0%,0%);fill-opacity:1;" />
<path d="M 190 458 C 206.542969 458 220 444.542969 220 428 L 220 374.898438 C 235.023438 364.953125 244.128906 348.234375 244.128906 329.914062 C 244.128906 300.140625 219.902344 275.914062 190.128906 275.914062 C 160.351562 275.914062 136.128906 300.140625 136.128906 329.914062 C 136.128906 348.101562 145.132812 364.757812 160 374.726562 L 160 428 C 160 444.542969 173.457031 458 190 458 Z M 156.128906 329.914062 C 156.128906 311.164062 171.378906 295.914062 190.128906 295.914062 C 208.875 295.914062 224.128906 311.164062 224.128906 329.914062 C 224.128906 342.789062 216.980469 354.410156 205.476562 360.25 C 202.117188 361.953125 200 365.398438 200 369.167969 L 200 428 C 200 433.515625 195.515625 438 190 438 C 184.484375 438 180 433.515625 180 428 L 180 369.035156 C 180 365.292969 177.910156 361.863281 174.582031 360.148438 C 163.199219 354.28125 156.128906 342.695312 156.128906 329.914062 Z M 156.128906 329.914062 " style=" stroke:none;fill-rule:nonzero;fill:rgb(0%,0%,0%);fill-opacity:1;" />
<path d="M 330 399 C 332.640625 399 335.210938 397.929688 337.070312 396.070312 C 338.929688 394.210938 340 391.640625 340 389 C 340 386.359375 338.929688 383.789062 337.070312 381.929688 C 335.210938 380.070312 332.640625 379 330 379 C 327.371094 379 324.789062 380.070312 322.929688 381.929688 C 321.070312 383.789062 320 386.371094 320 389 C 320 391.628906 321.070312 394.210938 322.929688 396.070312 C 324.789062 397.929688 327.371094 399 330 399 Z M 330 399 " style=" stroke:none;fill-rule:nonzero;fill:rgb(0%,0%,0%);fill-opacity:1;" />
</g>
</symbol>

</defs>
</svg>






